<svg xmlns="http://www.w3.org/2000/svg" width="500" height="500" viewBox="0 0 500 500"><rect x="0" y="0" width="500" height="500" fill="#FFFFFF"/><g transform="translate(240.79136347770694,237.50000000000003)translate(9.20863652229309,14)rotate(0)translate(-9.20863652229309,-14)" opacity="1"><path transform="translate(6,21.62655366986528)rotate(0)" d="" fill="#000000"/></g><g transform="translate(35.81758799713067,42.95643661554542)translate(147.42507934570312,51.5)rotate(0)translate(-147.42507934570312,-51.5)" opacity="1"><path transform="translate(6,81.60719837967517)rotate(0)" d="M38.02 0L55.87-50.59L39.28-50.59L29.05-16.77L28.76-16.77L18.60-50.59L1.26-50.59L19.21 0L38.02 0ZM79.63 0L79.63-50.59L63.37-50.59L63.37 0L79.63 0ZM113.17-50.59L91.27-50.59L91.27 0L113.17 0L113.17 0Q119.63 0 124.59-1.53L124.59-1.53L124.59-1.53Q129.54-3.05 132.90-6.18L132.90-6.18L132.90-6.18Q136.25-9.30 137.98-14.06L137.98-14.06L137.98-14.06Q139.70-18.81 139.70-25.31L139.70-25.31L139.70-25.31Q139.70-31.77 137.98-36.53L137.98-36.53L137.98-36.53Q136.25-41.29 132.90-44.41L132.90-44.41L132.90-44.41Q129.54-47.54 124.59-49.06L124.59-49.06L124.59-49.06Q119.63-50.59 113.17-50.59L113.17-50.59ZM107.50-38.45L112.88-38.45L112.88-38.45Q115.54-38.45 117.48-37.72L117.48-37.72L117.48-37.72Q119.42-36.98 120.65-35.56L120.65-35.56L120.65-35.56Q121.89-34.14 122.49-32.12L122.49-32.12L122.49-32.12Q123.08-30.09 123.08-27.50L123.08-27.50L123.08-23.09L123.08-23.09Q123.08-20.50 122.49-18.47L122.49-18.47L122.49-18.47Q121.89-16.44 120.65-15.03L120.65-15.03L120.65-15.03Q119.42-13.61 117.48-12.87L117.48-12.87L117.48-12.87Q115.54-12.14 112.88-12.14L112.88-12.14L107.50-12.14L107.50-38.45ZM199.55 0L181.10-50.59L162.21-50.59L143.72 0L160.35 0L162.50-7.14L180.20-7.14L182.36 0L199.55 0ZM171.23-36.48L171.55-36.48L176.83-18.45L165.88-18.45L171.23-36.48ZM253.66-35.08L253.66-35.08L253.66-35.08Q253.66-38.17 252.58-40.97L252.58-40.97L252.58-40.97Q251.51-43.77 249.35-45.90L249.35-45.90L249.35-45.90Q247.20-48.04 244.00-49.31L244.00-49.31L244.00-49.31Q240.81-50.59 236.61-50.59L236.61-50.59L205.66-50.59L205.66 0L221.89 0L221.89-18.45L227.92-18.45L236.89 0L255.13 0L243.89-21.18L243.89-21.18Q246.34-22.08 248.17-23.53L248.17-23.53L248.17-23.53Q250.00-24.99 251.22-26.82L251.22-26.82L251.22-26.82Q252.44-28.65 253.05-30.75L253.05-30.75L253.05-30.75Q253.66-32.85 253.66-35.08ZM237.11-34.40L237.11-34.40L237.11-34.40Q237.11-33.39 236.75-32.53L236.75-32.53L236.75-32.53Q236.39-31.67 235.76-31.04L235.76-31.04L235.76-31.04Q235.13-30.41 234.31-30.05L234.31-30.05L234.31-30.05Q233.48-29.69 232.55-29.69L232.55-29.69L221.89-29.69L221.89-39.03L232.55-39.03L232.55-39.03Q233.48-39.03 234.31-38.69L234.31-38.69L234.31-38.69Q235.13-38.35 235.76-37.73L235.76-37.73L235.76-37.73Q236.39-37.12 236.75-36.26L236.75-36.26L236.75-36.26Q237.11-35.40 237.11-34.40ZM279.83 0L279.83-50.59L263.57-50.59L263.57 0L279.83 0Z" fill="#41BC3F"/></g><g transform="translate(241.88596415519714,237.50000000000003)translate(8.114035844802856,14)rotate(0)translate(-8.114035844802856,-14)" opacity="1"><path transform="translate(6,17.735440362168085)rotate(0)" d="" fill="#000000"/></g><g transform="translate(28.333739853052066,22.369721087960677)translate(45.20405739727294,34.182570120863105)rotate(310.82784392802273)translate(-45.20405739727294,-34.182570120863105) scale(1,1)" opacity="1"><linearGradient class="linearGradient" x1="0%" y1="0%" x2="0%" y2="100%" gradientTransform="translate(0.5,0.5) rotate(0) translate(-0.5,-0.5)">
		<stop id="stop1" offset="0%" class="linearGradientColor1" stop-color="#05a"/>
		<stop id="stop2" offset="100%" class="linearGradientColor2" stop-color="#0a5"/>
	</linearGradient><radialGradient class="radialGradient" cx="50%" cy="50%" r="50%" fx="50%" fy="50%">
		<stop offset="0%" class="radialGradientColor1" stop-color="#05a"/>
		<stop offset="100%" class="radialGradientColor2" stop-color="#0a5"/>
	</radialGradient><clipPath id="clipd56ca191c8ad4a73761e365cd6aa2ba1" class="clipPath">
		<polygon class="element" fill="none" stroke="#dddddd" stroke-width="1" stroke-miterlimit="10" points="0,0 0,68.36514024172621 90.40811479454588,68.36514024172621"/>
	</clipPath><polygon fill="#D86411" opacity="1" class="fill-color element" points="0,1 1,67.36514024172621 89.40811479454588,68.36514024172621" clip-path="url(#clipd56ca191c8ad4a73761e365cd6aa2ba1)"/><polygon class="stroke-color element" fill="none" stroke="#dddddd" stroke-width="0" stroke-miterlimit="10" points="0,0 0,68.36514024172621 90.40811479454588,68.36514024172621" clip-path="url(#clipd56ca191c8ad4a73761e365cd6aa2ba1)"/></g><g transform="translate(399.0015360983103,40.67103382988606)translate(43.191645134633575,14.059216855662353)rotate(0)translate(-43.191645134633575,-14.059216855662353)" opacity="1"><path transform="translate(6,21.671501605212185)rotate(0)" d="M9.99 0L14.68-13.29L10.32-13.29L7.63-4.41L7.56-4.41L4.89-13.29L0.33-13.29L5.05 0L9.99 0ZM20.93 0L20.93-13.29L16.65-13.29L16.65 0L20.93 0ZM29.74-13.29L23.98-13.29L23.98 0L29.74 0L29.74 0Q31.44 0 32.74-0.40L32.74-0.40L32.74-0.40Q34.04-0.80 34.93-1.62L34.93-1.62L34.93-1.62Q35.81-2.44 36.26-3.69L36.26-3.69L36.26-3.69Q36.71-4.94 36.71-6.65L36.71-6.65L36.71-6.65Q36.71-8.35 36.26-9.60L36.26-9.60L36.26-9.60Q35.81-10.85 34.93-11.67L34.93-11.67L34.93-11.67Q34.04-12.49 32.74-12.89L32.74-12.89L32.74-12.89Q31.44-13.29 29.74-13.29L29.74-13.29ZM28.25-10.11L29.67-10.11L29.67-10.11Q30.36-10.11 30.87-9.91L30.87-9.91L30.87-9.91Q31.38-9.72 31.71-9.35L31.71-9.35L31.71-9.35Q32.03-8.97 32.19-8.44L32.19-8.44L32.19-8.44Q32.34-7.91 32.34-7.23L32.34-7.23L32.34-6.07L32.34-6.07Q32.34-5.39 32.19-4.85L32.19-4.85L32.19-4.85Q32.03-4.32 31.71-3.95L31.71-3.95L31.71-3.95Q31.38-3.58 30.87-3.38L30.87-3.38L30.87-3.38Q30.36-3.19 29.67-3.19L29.67-3.19L28.25-3.19L28.25-10.11ZM52.44 0L47.59-13.29L42.63-13.29L37.77 0L42.14 0L42.70-1.88L47.36-1.88L47.92 0L52.44 0ZM45.00-9.59L45.08-9.59L46.47-4.85L43.59-4.85L45.00-9.59ZM66.66-9.22L66.66-9.22L66.66-9.22Q66.66-10.03 66.38-10.77L66.38-10.77L66.38-10.77Q66.10-11.50 65.53-12.06L65.53-12.06L65.53-12.06Q64.96-12.62 64.12-12.96L64.12-12.96L64.12-12.96Q63.28-13.29 62.18-13.29L62.18-13.29L54.05-13.29L54.05 0L58.31 0L58.31-4.85L59.90-4.85L62.26 0L67.05 0L64.10-5.57L64.10-5.57Q64.74-5.80 65.22-6.18L65.22-6.18L65.22-6.18Q65.70-6.57 66.02-7.05L66.02-7.05L66.02-7.05Q66.34-7.53 66.50-8.08L66.50-8.08L66.50-8.08Q66.66-8.63 66.66-9.22ZM62.31-9.04L62.31-9.04L62.31-9.04Q62.31-8.77 62.22-8.55L62.22-8.55L62.22-8.55Q62.12-8.32 61.96-8.16L61.96-8.16L61.96-8.16Q61.79-7.99 61.58-7.90L61.58-7.90L61.58-7.90Q61.36-7.80 61.11-7.80L61.11-7.80L58.31-7.80L58.31-10.26L61.11-10.26L61.11-10.26Q61.36-10.26 61.58-10.17L61.58-10.17L61.58-10.17Q61.79-10.08 61.96-9.92L61.96-9.92L61.96-9.92Q62.12-9.76 62.22-9.53L62.22-9.53L62.22-9.53Q62.31-9.30 62.31-9.04ZM73.54 0L73.54-13.29L69.27-13.29L69.27 0L73.54 0Z" fill="#41bc3f"/></g><g transform="translate(408.9448701461081,28.620764007966187)translate(35.130813953488364,38.2446815539112)rotate(0)translate(-35.130813953488364,-38.2446815539112) scale(0.35130813953488366,0.35130813953488366)" opacity="1"><defs class="defs"/><path fill="#41BC3F" d="M197.581,97.5H2.419C1.083,97.5,0,98.619,0,100s1.083,2.5,2.419,2.5h195.162c1.336,0,2.419-1.119,2.419-2.5&#10;&#9;S198.917,97.5,197.581,97.5z" class="color c1"/></g><g transform="translate(306.7412430954318,43.34814168466974)translate(83.49835205078125,51.5)rotate(0)translate(-83.49835205078125,-51.5)" opacity="1"><path transform="translate(6,81.60719837967517)rotate(0)" d="M33.82-50.59L5.46-50.59L5.46 0L21.69 0L21.69-16.34L33.82-16.34L33.82-16.34Q37.41-16.34 40.39-17.59L40.39-17.59L40.39-17.59Q43.37-18.85 45.51-21.09L45.51-21.09L45.51-21.09Q47.64-23.34 48.83-26.39L48.83-26.39L48.83-26.39Q50.01-29.44 50.01-33.03L50.01-33.03L50.01-33.96L50.01-33.96Q50.01-37.56 48.83-40.59L48.83-40.59L48.83-40.59Q47.64-43.62 45.51-45.85L45.51-45.85L45.51-45.85Q43.37-48.08 40.39-49.33L40.39-49.33L40.39-49.33Q37.41-50.59 33.82-50.59L33.82-50.59ZM21.69-38.60L28.40-38.60L28.40-38.60Q31.06-38.60 32.30-37.27L32.30-37.27L32.30-37.27Q33.53-35.94 33.53-33.68L33.53-33.68L33.53-33.10L33.53-33.10Q33.53-30.84 32.26-29.49L32.26-29.49L32.26-29.49Q30.98-28.15 28.40-28.15L28.40-28.15L21.69-28.15L21.69-38.60ZM109.65 0L91.20-50.59L72.31-50.59L53.82 0L70.44 0L72.60-7.14L90.30-7.14L92.45 0L109.65 0ZM81.32-36.48L81.65-36.48L86.92-18.45L75.97-18.45L81.32-36.48ZM147.13-19.64L166.92-50.59L149.18-50.59L139.49-33.75L139.20-33.75L129.51-50.59L110.80-50.59L130.87-19.64L130.87 0L147.13 0L147.13-19.64Z" fill="#d86411"/></g></svg>